<svg width="35" height="35" viewBox="0 0 35 35" fill="none" xmlns="http://www.w3.org/2000/svg">
<path d="M16.2177 14.7423L16.2177 12.126C16.2177 11.5744 16.6561 11.136 17.2077 11.1219C17.3632 11.1219 17.5117 11.1148 17.6673 11.1148C19.131 11.1219 20.5594 11.235 21.9524 11.4542C23.3383 11.6805 24.6111 12.0199 25.7495 12.4795C26.888 12.9533 27.8284 13.5543 28.5638 14.2897C29.0446 14.7706 29.4194 15.315 29.674 15.909C29.9356 16.5101 30.0629 17.1747 30.0417 17.9031C30.0346 18.8011 29.7588 19.5153 29.2356 20.0385C29.0376 20.2365 28.7972 20.3921 28.5355 20.484C28.2668 20.583 27.9769 20.6183 27.6658 20.5618L23.7131 19.89C23.409 19.8405 23.1544 19.7698 22.9352 19.6779C22.7231 19.593 22.5393 19.4799 22.4049 19.3455C22.2352 19.1758 22.115 18.9566 22.0514 18.695C21.9806 18.4405 21.9453 18.1364 21.9453 17.797L21.9241 16.701C21.9241 16.5454 21.8675 16.4181 21.7544 16.305C21.6978 16.2484 21.6412 16.206 21.5705 16.1636C21.4927 16.1282 21.4291 16.107 21.3725 16.0787C21.0119 15.9726 20.4887 15.8878 19.8098 15.8312C19.1239 15.7817 18.4098 15.7464 17.6673 15.7393C17.5259 15.7393 17.3774 15.7464 17.236 15.7464C16.6773 15.7534 16.2177 15.308 16.2177 14.7423Z" fill="#E0E0E0"/>
<path d="M6.10611 20.0739C5.90812 19.8759 5.73841 19.6355 5.61113 19.3668C5.57578 19.289 5.54042 19.2112 5.51214 19.1264C5.37779 18.7516 5.29293 18.3556 5.27172 17.9243C5.23636 17.196 5.34243 16.5384 5.59699 15.9302C5.60406 15.9232 5.60406 15.909 5.61113 15.902C5.85862 15.3151 6.21924 14.7706 6.70715 14.2827C7.4284 13.5614 8.36885 12.9604 9.5285 12.4937C10.6882 12.027 11.968 11.6805 13.361 11.4613C13.8419 11.3906 14.3227 11.3199 14.8035 11.2775V15.902C14.457 15.9515 14.1671 16.0151 13.9409 16.0858C13.8914 16.107 13.8277 16.1282 13.757 16.1565C13.6792 16.1919 13.6156 16.2414 13.5519 16.305C13.4317 16.4252 13.3822 16.5596 13.3822 16.7151L13.3752 17.7829C13.3752 18.1364 13.3398 18.4405 13.262 18.688C13.1984 18.9496 13.0853 19.1617 12.9085 19.3385C12.7741 19.4729 12.6044 19.586 12.3852 19.6779C12.166 19.7698 11.9115 19.8406 11.6145 19.8971L7.61224 20.5759C7.30112 20.6325 7.02535 20.6113 6.77079 20.5123C6.5233 20.4062 6.3041 20.2719 6.10611 20.0739Z" fill="#E0E0E0"/>
</svg>
