<svg width="20" height="14" viewBox="0 0 20 14" fill="none" xmlns="http://www.w3.org/2000/svg">
<g clip-path="url(#clip0_2_1004)">
<path d="M19.0997 0.474007C18.7415 0.205301 18.3064 0.0586629 17.8586 0.0556641H2.5194C2.07159 0.0586629 1.63657 0.205301 1.27832 0.474007L10.189 6.19833L19.0997 0.474007Z" fill="white"/>
<path d="M10.4441 7.66881H10.3883C10.3241 7.6975 10.256 7.7163 10.1861 7.72459C10.1283 7.73188 10.0697 7.73188 10.0118 7.72459H9.95604L9.83751 7.66881L0.494528 1.63074C0.44989 1.79915 0.426467 1.97248 0.424805 2.14669V11.908C0.424805 12.4628 0.645181 12.9948 1.03745 13.3871C1.42973 13.7794 1.96176 13.9997 2.51652 13.9997H17.8557C18.4105 13.9997 18.9425 13.7794 19.3348 13.3871C19.7271 12.9948 19.9475 12.4628 19.9475 11.908V2.14669C19.9458 1.97248 19.9224 1.79915 19.8777 1.63074L10.5626 7.61304L10.4441 7.66881Z" fill="white"/>
</g>
<defs>
<clipPath id="clip0_2_1004">
<rect width="19.5227" height="13.9441" fill="white" transform="translate(0.424805 0.0556641)"/>
</clipPath>
</defs>
</svg>
