<svg width="19" height="18" viewBox="0 0 19 18" fill="none" xmlns="http://www.w3.org/2000/svg">
<path fill-rule="evenodd" clip-rule="evenodd" d="M3.87363 17.9603C3.00686 17.9603 2.17559 17.6154 1.56269 17.0016C0.949791 16.3877 0.605469 15.5551 0.605469 14.6869V11.4136L4.3584 7.65466C4.49102 7.87821 4.64974 8.08516 4.8312 8.27114L5.82907 9.27061L2.78424 12.5047H6.0524V13.5958C6.0524 13.8852 6.16717 14.1627 6.37147 14.3674C6.57577 14.572 6.85286 14.6869 7.14178 14.6869H11.4993C12.1018 14.6869 12.5887 14.1992 12.5887 13.5958V12.5047H15.8569L12.812 9.27061L13.8099 8.27114C13.9914 8.08535 14.1505 7.87879 14.2838 7.65575L18.0356 11.4136V14.6869C18.0356 15.5551 17.6913 16.3877 17.0784 17.0016C16.4655 17.6154 15.6342 17.9603 14.7675 17.9603H3.87363ZM9.32055 9.23024C9.04167 9.23024 8.76279 9.12331 8.55036 8.91054L6.37159 6.72829C6.21956 6.57544 6.11601 6.38101 6.07396 6.16941C6.0319 5.95781 6.0532 5.73848 6.13519 5.53897C6.21783 5.33981 6.35757 5.16966 6.53673 5.05003C6.7159 4.93039 6.92645 4.86664 7.14178 4.86683H8.23117V1.59346C8.2385 1.30896 8.35649 1.03857 8.55999 0.839943C8.76349 0.641313 9.0364 0.530151 9.32055 0.530151C9.6047 0.530151 9.87761 0.641313 10.0811 0.839943C10.2846 1.03857 10.4026 1.30896 10.4099 1.59346V4.86683H11.4993C11.9394 4.86683 12.3382 5.13307 12.5059 5.54006C12.5882 5.73935 12.6096 5.95858 12.5675 6.17006C12.5254 6.38154 12.4217 6.5758 12.2695 6.72829L10.0907 8.91054C9.87832 9.12331 9.59944 9.23024 9.32055 9.23024Z" fill="white"/>
</svg>
