<svg width="25" height="25" viewBox="0 0 25 25" fill="none" xmlns="http://www.w3.org/2000/svg">
<path d="M8.52196 18.99V8.82998C8.52196 8.42998 8.64196 8.03998 8.86196 7.70998L11.592 3.64998C12.022 2.99998 13.092 2.53998 14.002 2.87998C14.982 3.20998 15.632 4.30997 15.422 5.28997L14.902 8.55998C14.862 8.85998 14.942 9.12998 15.112 9.33998C15.282 9.52998 15.532 9.64997 15.802 9.64997H19.912C20.702 9.64997 21.382 9.96997 21.782 10.53C22.162 11.07 22.232 11.77 21.982 12.48L19.522 19.97C19.212 21.21 17.862 22.22 16.522 22.22H12.622C11.952 22.22 11.012 21.99 10.582 21.56L9.30196 20.57C8.81196 20.2 8.52196 19.61 8.52196 18.99Z" fill="white"/>
<path d="M5.34196 6.88H4.31196C2.76196 6.88 2.13196 7.48 2.13196 8.96V19.02C2.13196 20.5 2.76196 21.1 4.31196 21.1H5.34196C6.89196 21.1 7.52196 20.5 7.52196 19.02V8.96C7.52196 7.48 6.89196 6.88 5.34196 6.88Z" fill="white"/>
</svg>
