<svg width="18" height="18" viewBox="0 0 18 18" fill="none" xmlns="http://www.w3.org/2000/svg">
<path fill-rule="evenodd" clip-rule="evenodd" d="M5.97861 0.660615C4.92001 1.06749 3.95464 1.68429 3.14059 2.47392C2.32654 3.26354 1.68063 4.20968 1.24172 5.25541C0.802801 6.30113 0.579952 7.42484 0.586575 8.55892C0.571971 9.73633 0.808449 10.9033 1.28026 11.9822C1.75206 13.061 2.44836 14.0269 3.32276 14.8156C3.39218 14.8774 3.44871 14.9523 3.48908 15.0361C3.52946 15.1198 3.55289 15.2107 3.55804 15.3035V16.8546C3.56282 16.969 3.59532 17.0804 3.65276 17.1794C3.7102 17.2784 3.79084 17.3619 3.88774 17.4228C3.98464 17.4837 4.09489 17.5201 4.209 17.5289C4.3231 17.5377 4.43763 17.5186 4.54272 17.4733L6.28551 16.7152C6.43433 16.659 6.59854 16.659 6.74735 16.7152C7.57121 16.9376 8.42107 17.0489 9.27441 17.0463C11.5208 17.0498 13.6765 16.1608 15.2674 14.5748C16.8583 12.9888 17.754 10.8358 17.7575 8.58942C17.7609 6.34304 16.8719 4.18729 15.2859 2.59641C13.6999 1.00553 11.5469 0.109835 9.30055 0.106368C8.16719 0.0652157 7.03722 0.253745 5.97861 0.660615ZM11.9757 10.6677C11.8794 10.8206 11.7525 10.9518 11.6029 11.0532C11.4533 11.1545 11.2844 11.2238 11.1067 11.2565C10.929 11.2893 10.7464 11.2848 10.5706 11.2435C10.3947 11.2021 10.2293 11.1248 10.0848 11.0163L8.04574 9.49132C7.95523 9.42344 7.84516 9.38675 7.73203 9.38675C7.61891 9.38675 7.50883 9.42344 7.41833 9.49132L4.66471 11.5827C4.58803 11.6418 4.49286 11.6719 4.39611 11.6675C4.29936 11.6631 4.2073 11.6246 4.13625 11.5588C4.06521 11.493 4.01979 11.4041 4.00806 11.308C3.99633 11.2118 4.01904 11.1147 4.07216 11.0337L6.62536 6.97298C6.72165 6.8201 6.84859 6.68884 6.99817 6.58749C7.14775 6.48614 7.31672 6.4169 7.49441 6.38415C7.6721 6.3514 7.85465 6.35584 8.03053 6.39719C8.20641 6.43855 8.37182 6.51592 8.51629 6.62442L10.5554 8.14936C10.6459 8.21724 10.7559 8.25393 10.8691 8.25393C10.9822 8.25393 11.0923 8.21724 11.1828 8.14936L13.9364 6.05801C14.0131 5.99887 14.1082 5.96881 14.205 5.97319C14.3017 5.97756 14.3938 6.01607 14.4648 6.08189C14.5359 6.14771 14.5813 6.23657 14.593 6.33271C14.6048 6.42884 14.5821 6.52602 14.5289 6.60699L11.9757 10.6677Z" fill="white"/>
</svg>
