<svg width="21" height="19" viewBox="0 0 21 19" fill="none" xmlns="http://www.w3.org/2000/svg">
<path d="M3.17144 17.945C2.91385 17.8591 2.65626 17.6874 2.48454 17.5156L2.39867 17.4298C2.31281 17.3439 2.22695 17.1722 2.22695 17.0863C2.22695 16.9146 2.31281 16.8287 2.48454 16.7429C3.17144 16.3994 3.77248 15.7984 4.11593 15.1115C4.2018 15.0256 4.28766 14.9398 4.28766 14.8539C1.8835 13.3942 0.423828 11.0759 0.423828 8.58591C0.423828 4.29276 4.8887 0.686523 10.2981 0.686523C15.7074 0.686523 20.1723 4.29276 20.1723 8.58591C20.1723 12.8791 15.7074 16.4853 10.2981 16.4853C9.78288 16.4853 9.18184 16.4853 8.66667 16.3994C7.37872 17.5157 5.83319 18.1167 4.37352 18.1167C3.94421 18.1167 3.60075 18.0308 3.17144 17.945Z" fill="white"/>
</svg>
