<svg width="25" height="25" viewBox="0 0 25 25" fill="none" xmlns="http://www.w3.org/2000/svg">
<path d="M4.04196 17.68C3.85196 17.68 3.66196 17.61 3.51196 17.46C2.14196 16.08 1.38196 14.26 1.38196 12.33C1.38196 8.31999 4.63196 5.05999 8.63196 5.05999L14.702 5.07999L13.612 4.03999C13.312 3.74999 13.302 3.27999 13.592 2.97999C13.882 2.67999 14.352 2.66999 14.652 2.95999L17.092 5.29999C17.312 5.50999 17.382 5.83999 17.272 6.11999C17.162 6.39999 16.882 6.58999 16.572 6.58999L8.63196 6.56999C5.46196 6.56999 2.88196 9.15999 2.88196 12.34C2.88196 13.87 3.48196 15.32 4.57196 16.41C4.86196 16.7 4.86196 17.18 4.57196 17.47C4.42196 17.61 4.23196 17.68 4.04196 17.68Z" fill="white"/>
<path d="M10.132 22.25C9.94195 22.25 9.76195 22.18 9.61195 22.04L7.17195 19.7C6.95195 19.49 6.88195 19.16 6.99195 18.88C7.11195 18.6 7.39195 18.45 7.69195 18.41L15.642 18.43C18.812 18.43 21.392 15.84 21.392 12.66C21.392 11.13 20.792 9.68 19.702 8.59C19.412 8.3 19.412 7.82 19.702 7.53C19.992 7.24 20.4719 7.24 20.7619 7.53C22.1319 8.91 22.892 10.73 22.892 12.66C22.892 16.67 19.642 19.93 15.642 19.93L9.57195 19.91L10.6619 20.95C10.9619 21.24 10.972 21.71 10.682 22.01C10.522 22.17 10.332 22.25 10.132 22.25Z" fill="white"/>
<path d="M12.382 15.92C11.972 15.92 11.632 15.58 11.632 15.17V11.78L11.442 11.99C11.162 12.3 10.692 12.32 10.382 12.05C10.072 11.78 10.052 11.3 10.322 10.99L11.822 9.32001C12.032 9.09001 12.362 9.01001 12.652 9.12001C12.942 9.24001 13.132 9.51001 13.132 9.83001V15.18C13.132 15.59 12.792 15.92 12.382 15.92Z" fill="white"/>
</svg>
