<svg width="25" height="25" viewBox="0 0 25 25" fill="none" xmlns="http://www.w3.org/2000/svg">
<path d="M21.282 6.67C20.872 6.45 20.012 6.22 18.842 7.04L17.372 8.08C17.262 4.97 15.912 3.75 12.632 3.75H6.63196C3.21196 3.75 1.88196 5.08 1.88196 8.5V16.5C1.88196 18.8 3.13196 21.25 6.63196 21.25H12.632C15.912 21.25 17.262 20.03 17.372 16.92L18.842 17.96C19.462 18.4 20.002 18.54 20.432 18.54C20.802 18.54 21.092 18.43 21.282 18.33C21.692 18.12 22.382 17.55 22.382 16.12V8.88C22.382 7.45 21.692 6.88 21.282 6.67ZM11.132 11.88C10.102 11.88 9.25196 11.04 9.25196 10C9.25196 8.96 10.102 8.12 11.132 8.12C12.162 8.12 13.012 8.96 13.012 10C13.012 11.04 12.162 11.88 11.132 11.88Z" fill="white"/>
</svg>
